<svg version="1.1" id="Warstwa_1" xmlns="http://www.w3.org/2000/svg" x="0" y="0" viewBox="0 0 283 50" style="enable-background:new 0 0 283 50" xml:space="preserve"><style>.st1{fill:#fff}</style><path d="M49.89 0H0v50h124.69V0H49.9zM18.72 10.98c.53.63 1.03 1.3 1.6 1.88.39.38.86.77 1.35.92.97.31 1.84-.42 1.54-1.36-.57-1.76.67-2.48 1.68-3.5.5.52.95.97 1.38 1.45.41.47.53 1 .33 1.62-.21.62-.23 1.24.4 1.67.48.33 1.32.26 1.85-.26.72-.72 1.38-1.51 2.04-2.3.79-.94 1.78-1.17 3.06-.92-.18.3-.3.54-.46.77-.71 1.13-1.42 2.26-2.15 3.38-.52.79-1.31 1.13-2.23 1.14-2.84 0-5.67.02-8.51 0a2.5 2.5 0 0 1-2.18-1.1c-.89-1.36-1.75-2.73-2.68-4.19 1.23-.2 2.2-.1 2.98.8zm1.99 18.54c.54-.1.94-.17 1.33-.28 1.2-.33 1.91-1.16 1.97-2.25.06-1.04-.48-1.83-1.65-2.33-.6-.25-1.21-.44-1.8-.7-.65-.27-1.23-.63-1.46-1.26 1.68.12 3.34.2 4.99.36 1.68.15 3.12 1.37 3.2 2.75.08 1.5-.29 2.9-1.6 3.83-1.31.92-2.72.92-4.15.33-.24-.1-.46-.25-.83-.45zm12.27-10.75c4 2.16 5.14 6.16 2.9 10.1-1.24 2.17-3 3.88-4.76 5.6a688.72 688.72 0 0 0-5.32 5.3c-.25.24-.43.56-.63.86-.5.76-.85 1.54-.21 2.4-1.49.17-3.12-1.35-3.23-3.15a5.15 5.15 0 0 1 1.5-3.96 57.3 57.3 0 0 1 3.6-3.4c1.76-1.55 3.65-2.95 5.06-4.87a6.56 6.56 0 0 0 1.44-3.95c0-1.95-1.07-3.26-2.66-4.19-.73-.42-1.48-.19-1.9.67-.62 1.3-1.61 1.47-2.84 1.22-1.89-.39-3.77-.86-5.69-1.15a11.23 11.23 0 0 0-3.44-.02c-1.52.25-2.76 1.03-3.04 2.92-.26-.28-.45-.45-.6-.65a3.56 3.56 0 0 1 1.1-5.22c1-.62 2.1-.87 3.25-.91 1.63-.06 3.26-.04 4.9-.02.2 0 .49.13.57.3.44.8.9 1.1 1.76.83.54-.16 1.03-.5 1.56-.73.39-.17.8-.37 1.21-.4 1.16-.07 2.33.04 3.47-.1 1.87-.23 3.28-1.34 4.53-2.66.56-.6 1.07-1.24 1.74-1.82l-.44 2.3-.52 2.56c-.2 1.01-.76 1.48-1.82 1.5-.82.03-1.65.02-2.48.03l-.06.07 1.05.54zm90.24 29.8h-72.6V1.43h72.6v47.14z" style="fill-rule:evenodd;clip-rule:evenodd;fill:#fff"/><path class="st1" d="M106.42 39.14c-.51 0-.84-.36-.84-.81 0-.46.34-.81.86-.81s.84.35.85.8c0 .46-.33.82-.86.82h-.01zm-.75 5.55v-4.9h1.52v4.9h-1.52zM110.12 38.45v1.33h1.1v1.13h-1.1v1.78c0 .6.15.86.6.86.21 0 .31 0 .45-.04l.01 1.16c-.19.07-.56.13-.98.13-.5 0-.9-.17-1.16-.42-.28-.3-.42-.77-.42-1.46v-2.01h-.65v-1.13h.65v-.92l1.5-.41zM112.1 41.35c0-.61-.03-1.13-.05-1.57h1.3l.06.67h.03a1.7 1.7 0 0 1 1.48-.78c.64 0 1.13.33 1.34.84h.02a1.86 1.86 0 0 1 1.57-.84c.95 0 1.66.66 1.66 2.13v2.89h-1.48v-2.66c0-.71-.23-1.12-.72-1.12-.36 0-.6.24-.71.53a1.6 1.6 0 0 0-.05.38v2.87h-1.49v-2.75c0-.61-.22-1.03-.71-1.03-.4 0-.62.3-.71.54-.05.12-.06.26-.06.39v2.85h-1.49v-3.34zM60.36 36.11l6.33-7.9a92.45 92.45 0 0 1 3.2-3.53v-.08h-8.83v-4.98H77.5v3.78l-6.05 7.61c-1.1 1.28-2.14 2.55-3.29 3.66v.09h9.67v4.97H60.36v-3.62zM100.45 10.53v23.2c0 2.3.08 4.64.17 6h-5.55l-.25-2.92h-.12c-1.24 2.22-3.7 3.37-6.3 3.37-4.77 0-8.6-4.07-8.6-10.32-.03-6.74 4.2-10.7 9.01-10.7 2.51 0 4.4.91 5.31 2.27h.08v-10.9h6.25zM94.2 28.18c0-.37 0-.79-.08-1.16a3.72 3.72 0 0 0-3.66-3.04c-2.88 0-4.32 2.55-4.32 5.72 0 3.37 1.69 5.5 4.28 5.5a3.7 3.7 0 0 0 3.66-3c.08-.4.12-.9.12-1.4v-2.63zM135.66 32.5c0 .3-.07.5-.2.62-.12.11-.36.17-.71.17s-.59-.06-.71-.17c-.12-.1-.19-.3-.19-.6s.07-.51.2-.63c.12-.11.36-.17.71-.17s.59.05.71.17c.12.11.19.31.19.6zm-.12 7.1c0 .03-.01.07-.04.1a.27.27 0 0 1-.13.07 3.43 3.43 0 0 1-1.24 0 .27.27 0 0 1-.12-.07.15.15 0 0 1-.04-.1v-5.3c0-.04.01-.08.04-.1a.32.32 0 0 1 .13-.08 3.4 3.4 0 0 1 1.24 0l.12.07c.03.03.04.07.04.1v5.3zM145.14 32.51c0 .12 0 .22-.02.3a.79.79 0 0 1-.05.2.26.26 0 0 1-.08.12.17.17 0 0 1-.1.04h-2.08v6.4c0 .04-.02.08-.04.11a.3.3 0 0 1-.14.08 3.57 3.57 0 0 1-1.33 0 .3.3 0 0 1-.14-.08.17.17 0 0 1-.05-.1v-6.41h-2.07a.16.16 0 0 1-.11-.04.27.27 0 0 1-.08-.11.75.75 0 0 1-.05-.2 2.51 2.51 0 0 1 .05-.83.27.27 0 0 1 .08-.1.18.18 0 0 1 .1-.04h5.86a.2.2 0 0 1 .1.03c.04.03.06.06.08.11a.8.8 0 0 1 .05.2l.02.32zM149.37 34.62a4.5 4.5 0 0 1-.05.58c-.02.06-.04.1-.07.11a.18.18 0 0 1-.1.03c-.04 0-.08 0-.12-.02l-.14-.05a3.02 3.02 0 0 0-.18-.04.96.96 0 0 0-.21-.02.73.73 0 0 0-.27.05c-.1.04-.18.09-.28.16a4.71 4.71 0 0 0-.64.75v3.41c0 .05-.01.08-.04.11a.27.27 0 0 1-.13.08 3.67 3.67 0 0 1-1.28 0 .27.27 0 0 1-.13-.08.16.16 0 0 1-.04-.1V34.1c0-.04.02-.08.04-.1a.23.23 0 0 1 .11-.09.87.87 0 0 1 .22-.04 2.83 2.83 0 0 1 .88.04c.04.02.08.05.1.08.02.03.03.07.03.1v.69c.15-.2.3-.37.43-.5.13-.14.26-.24.38-.32a1.23 1.23 0 0 1 .71-.21 2.4 2.4 0 0 1 .38.04l.18.05c.05.02.1.04.11.06l.06.06.02.1.02.2.01.35zM154.91 39.6c0 .06-.02.1-.06.14a.45.45 0 0 1-.2.07l-.41.02c-.2 0-.33 0-.42-.02a.37.37 0 0 1-.19-.07.17.17 0 0 1-.05-.14v-.43a2.43 2.43 0 0 1-1.8.77c-.32 0-.6-.04-.85-.12a1.88 1.88 0 0 1-.66-.34 1.52 1.52 0 0 1-.43-.55c-.1-.22-.16-.48-.16-.78a1.54 1.54 0 0 1 .78-1.41c.26-.15.58-.27.97-.34.38-.07.83-.11 1.34-.11h.56v-.33c0-.18-.02-.33-.06-.46a.75.75 0 0 0-.18-.32.74.74 0 0 0-.33-.19 2.79 2.79 0 0 0-1.24.02 4.42 4.42 0 0 0-.97.39.63.63 0 0 1-.26.08.2.2 0 0 1-.13-.04.3.3 0 0 1-.09-.12.78.78 0 0 1-.05-.2 1.54 1.54 0 0 1 .01-.56.47.47 0 0 1 .12-.2c.06-.06.17-.12.32-.2a3.9 3.9 0 0 1 1.18-.34 4.58 4.58 0 0 1 1.89.07c.32.08.58.2.78.38.2.18.36.4.45.67.1.28.14.6.14.98v3.68zm-1.58-2.34h-.62c-.26 0-.48.02-.67.05-.18.04-.33.1-.44.17a.7.7 0 0 0-.26.27.78.78 0 0 0-.08.36c0 .22.08.4.23.54.15.13.36.2.63.2.23 0 .44-.06.63-.17.19-.11.38-.28.58-.49v-.93zM161.66 39.58c0 .05-.01.08-.04.11a.28.28 0 0 1-.13.08l-.24.04a3.68 3.68 0 0 1-1.03-.04.27.27 0 0 1-.13-.08.17.17 0 0 1-.04-.1v-3.13c0-.27-.02-.47-.06-.62a1.2 1.2 0 0 0-.18-.4.78.78 0 0 0-.3-.25.96.96 0 0 0-.42-.09c-.2 0-.42.08-.63.22-.2.14-.42.35-.65.62v3.64c0 .05-.01.08-.04.11a.28.28 0 0 1-.13.08 3.67 3.67 0 0 1-1.28 0 .27.27 0 0 1-.13-.08.16.16 0 0 1-.04-.1V34.1c0-.04.01-.08.04-.1a.23.23 0 0 1 .11-.09.85.85 0 0 1 .22-.04 2.85 2.85 0 0 1 .87.04c.06.02.09.05.11.08.02.03.03.07.03.1v.64c.32-.33.64-.57.97-.74.33-.16.67-.24 1.02-.24.4 0 .72.06.99.18.26.13.48.3.65.5.16.21.28.46.35.74.07.28.11.62.11 1.02v3.38zM166.95 38.04c0 .3-.07.58-.19.82s-.3.44-.51.6c-.23.16-.49.28-.8.35a3.86 3.86 0 0 1-2.12-.04l-.38-.14a.93.93 0 0 1-.23-.14.42.42 0 0 1-.1-.2 2.43 2.43 0 0 1-.03-.7.7.7 0 0 1 .04-.17.17.17 0 0 1 .06-.09.21.21 0 0 1 .1-.02c.05 0 .11.03.2.08a4.53 4.53 0 0 0 .83.34 2.2 2.2 0 0 0 1 .04 1 1 0 0 0 .3-.12.52.52 0 0 0 .19-.2.6.6 0 0 0 .06-.29.46.46 0 0 0-.12-.32 1.05 1.05 0 0 0-.31-.23 3.79 3.79 0 0 0-.44-.18 11.08 11.08 0 0 1-1.02-.43c-.16-.09-.3-.2-.44-.33a1.5 1.5 0 0 1-.43-1.14 1.62 1.62 0 0 1 .62-1.28c.2-.16.45-.28.74-.36a3.35 3.35 0 0 1 1.49-.1 3.8 3.8 0 0 1 .8.22l.2.1a.3.3 0 0 1 .1.1l.03.11.02.16.01.24a2.68 2.68 0 0 1-.04.43.15.15 0 0 1-.06.08.18.18 0 0 1-.09.03.46.46 0 0 1-.18-.07 3.02 3.02 0 0 0-1.27-.34c-.15 0-.28.02-.38.04-.1.03-.2.07-.27.13a.53.53 0 0 0-.15.18.54.54 0 0 0-.05.23c0 .13.04.24.12.32.08.1.19.16.32.23s.29.13.45.18a13.5 13.5 0 0 1 1.03.43c.17.09.32.2.45.33a1.54 1.54 0 0 1 .45 1.12zM173.6 36.77c0 .48-.06.92-.17 1.31-.11.4-.27.73-.48 1a2.1 2.1 0 0 1-.78.63 2.5 2.5 0 0 1-1.53.18 1.85 1.85 0 0 1-.4-.14 4.67 4.67 0 0 1-.79-.57v2.58c0 .04-.02.08-.04.1a.29.29 0 0 1-.13.1l-.25.04a3.1 3.1 0 0 1-1.03-.05.28.28 0 0 1-.13-.08.17.17 0 0 1-.04-.11V34.1c0-.04.01-.08.03-.1a.24.24 0 0 1 .11-.09.82.82 0 0 1 .22-.04 2.85 2.85 0 0 1 .86.04c.06.02.1.05.11.08.03.03.04.07.04.1v.65c.16-.16.33-.3.49-.43.16-.13.32-.23.49-.31a2.34 2.34 0 0 1 1.08-.25 2 2 0 0 1 1.8.88c.18.28.32.6.4.96.09.36.13.75.13 1.17zm-1.69.1c0-.23-.02-.45-.05-.66-.04-.22-.1-.41-.19-.58a1.1 1.1 0 0 0-.35-.4.91.91 0 0 0-.53-.15 1.24 1.24 0 0 0-.64.2c-.11.06-.22.15-.34.27-.11.1-.23.24-.36.4v1.81c.22.28.44.49.64.64.21.15.42.22.65.22.2 0 .39-.05.53-.15.15-.1.27-.24.37-.4.09-.17.16-.36.2-.57.05-.2.07-.41.07-.62zM180.34 36.8c0 .46-.06.88-.2 1.27a2.58 2.58 0 0 1-1.57 1.64c-.38.15-.84.22-1.37.22-.5 0-.95-.06-1.33-.2a2.41 2.41 0 0 1-.93-.59 2.39 2.39 0 0 1-.55-.95c-.12-.37-.18-.8-.18-1.29 0-.46.06-.9.2-1.28.12-.39.32-.72.58-1 .26-.27.59-.48.98-.63.39-.16.85-.23 1.37-.23a4 4 0 0 1 1.34.2c.37.13.69.33.93.58.25.26.43.58.55.96.12.37.18.8.18 1.3zm-1.66.05c0-.27-.03-.52-.07-.74a1.72 1.72 0 0 0-.23-.6c-.1-.16-.25-.3-.42-.39-.18-.1-.4-.14-.67-.14-.24 0-.45.04-.63.13-.18.08-.33.2-.45.36-.11.17-.2.36-.26.59a3.72 3.72 0 0 0-.02 1.52c.05.23.13.43.24.6.1.16.24.29.42.38.18.1.4.14.67.14.24 0 .46-.04.63-.12.18-.09.33-.21.45-.37.11-.16.2-.35.25-.58.06-.23.09-.49.09-.78zM184.96 34.62a3.98 3.98 0 0 1-.05.58c-.01.06-.04.1-.07.11a.18.18 0 0 1-.1.03c-.04 0-.07 0-.12-.02l-.14-.05a3.4 3.4 0 0 0-.18-.04.96.96 0 0 0-.2-.02.73.73 0 0 0-.28.05c-.09.04-.18.09-.28.16-.1.08-.2.17-.3.3s-.22.27-.34.45v3.41c0 .05 0 .08-.03.11a.27.27 0 0 1-.14.08l-.24.04a3.66 3.66 0 0 1-1.03-.04.27.27 0 0 1-.13-.08.16.16 0 0 1-.04-.1V34.1c0-.04 0-.08.03-.1a.23.23 0 0 1 .12-.09.85.85 0 0 1 .21-.04 2.84 2.84 0 0 1 .88.04c.05.02.08.05.1.08.03.03.04.07.04.1v.69c.15-.2.29-.37.42-.5.13-.14.26-.24.38-.32a1.23 1.23 0 0 1 .72-.21 2.35 2.35 0 0 1 .38.04l.18.05a.4.4 0 0 1 .1.06.2.2 0 0 1 .06.06l.03.1.02.2v.35zM189.6 39.04c0 .18 0 .32-.03.42a.44.44 0 0 1-.09.2.5.5 0 0 1-.17.1 2.87 2.87 0 0 1-.95.15c-.32 0-.6-.03-.83-.11a1.38 1.38 0 0 1-.92-.97 3.1 3.1 0 0 1-.11-.87v-2.8h-.69c-.08 0-.14-.06-.19-.15a2.34 2.34 0 0 1-.05-.78.76.76 0 0 1 .05-.2.23.23 0 0 1 .09-.1.2.2 0 0 1 .1-.03h.69v-1.22c0-.04 0-.08.03-.11a.25.25 0 0 1 .13-.08 3.69 3.69 0 0 1 1.28 0c.06.02.1.04.13.08.03.03.04.07.04.1v1.23h1.24a.2.2 0 0 1 .12.03c.03.02.05.05.08.1l.04.2a2.44 2.44 0 0 1-.04.78c-.05.1-.11.14-.19.14h-1.25v2.58c0 .3.05.52.15.67.1.15.27.22.52.22a1.14 1.14 0 0 0 .42-.07l.13-.05a.27.27 0 0 1 .1-.02c.03 0 .05 0 .07.02.03.02.05.04.06.09l.03.17.02.28zM195.88 39.58c0 .05-.02.08-.04.11a.22.22 0 0 1-.1.08 2.64 2.64 0 0 1-1.1 0 .23.23 0 0 1-.11-.08.2.2 0 0 1-.03-.1v-.64c-.32.33-.64.58-.97.74-.33.16-.66.24-1.02.24-.39 0-.72-.06-.99-.18a1.7 1.7 0 0 1-.64-.5 1.97 1.97 0 0 1-.36-.74 4.4 4.4 0 0 1-.1-1.05v-3.35c0-.04 0-.08.03-.1a.26.26 0 0 1 .13-.09 3.96 3.96 0 0 1 1.28 0c.06.02.1.05.13.08.02.03.04.07.04.1v3.1c0 .29.02.5.05.66.04.15.1.28.18.39.08.1.18.2.3.25.12.06.27.1.43.1.2 0 .41-.08.62-.23.2-.14.43-.35.66-.62V34.1c0-.04.01-.08.04-.1a.26.26 0 0 1 .13-.09l.24-.04a3.94 3.94 0 0 1 1.03.04c.06.02.1.05.13.08.02.03.04.07.04.1v5.48zM209.72 39.57c0 .04-.01.08-.03.11a.25.25 0 0 1-.13.08l-.25.05a3.23 3.23 0 0 1-1.02-.05.28.28 0 0 1-.13-.08.18.18 0 0 1-.04-.1V33.1l-2.41 6.46a.3.3 0 0 1-.09.13.43.43 0 0 1-.16.08 5 5 0 0 1-1.25-.02.48.48 0 0 1-.15-.08.24.24 0 0 1-.08-.11l-2.32-6.46h-.02v6.46c0 .04 0 .08-.03.11a.26.26 0 0 1-.13.08l-.25.05a3.16 3.16 0 0 1-1.02-.05.25.25 0 0 1-.13-.08.18.18 0 0 1-.03-.1v-7.09c0-.2.05-.36.17-.48a.64.64 0 0 1 .46-.16h1.1c.2 0 .37.01.51.05.14.03.27.08.37.15.1.07.19.16.25.28a2 2 0 0 1 .18.43l1.8 4.74h.03l1.86-4.72c.05-.17.11-.32.18-.44.07-.12.14-.21.23-.29.09-.07.2-.12.31-.15.12-.04.26-.05.42-.05h1.13a.9.9 0 0 1 .3.04.5.5 0 0 1 .2.13c.06.05.1.12.13.2.03.08.04.17.04.27v7.08zM212.84 32.26c0 .3-.06.52-.2.64-.13.12-.37.18-.73.18s-.61-.06-.74-.17c-.12-.12-.19-.33-.19-.63s.07-.52.2-.64.38-.18.74-.18.6.05.73.17c.13.12.2.33.2.63zm-.12 7.32c0 .05-.01.08-.04.11a.27.27 0 0 1-.13.08l-.24.04a3.67 3.67 0 0 1-1.03-.04.27.27 0 0 1-.14-.08.16.16 0 0 1-.03-.1v-5.47c0-.04 0-.08.03-.1a.3.3 0 0 1 .14-.09 3.47 3.47 0 0 1 1.28 0c.05.03.1.05.12.08.03.03.04.07.04.11v5.46zM219.3 36.69c0 .18-.05.33-.14.41a.48.48 0 0 1-.36.14h-3.49c0 .23.03.45.09.64s.15.35.28.48c.12.13.28.23.48.3.2.07.44.1.72.1a4.28 4.28 0 0 0 1.69-.3c.1-.05.18-.07.25-.07a.2.2 0 0 1 .1.03c.02 0 .04.04.06.07a.5.5 0 0 1 .03.16 2.9 2.9 0 0 1-.01.65c-.01.04-.02.08-.04.1a.4.4 0 0 1-.07.1.76.76 0 0 1-.23.12 6.74 6.74 0 0 1-1.93.32c-.5 0-.95-.07-1.34-.19a2.29 2.29 0 0 1-1.53-1.5 4.23 4.23 0 0 1-.19-1.34c0-.49.07-.93.2-1.32s.32-.72.58-1c.25-.27.56-.47.92-.62.36-.14.77-.21 1.22-.21.48 0 .89.07 1.23.2.34.14.62.32.84.56.21.24.37.53.48.85.1.33.15.69.15 1.07v.25zm-1.57-.44c0-.44-.08-.78-.28-1.03-.2-.24-.5-.37-.9-.37-.2 0-.38.04-.53.11-.16.08-.28.18-.38.3-.1.13-.18.27-.23.44a2.1 2.1 0 0 0-.1.55h2.42zM222.03 39.77c0 .43-.04.78-.12 1.04-.07.27-.19.5-.35.68-.15.18-.35.32-.58.4-.24.1-.51.14-.83.14a2.58 2.58 0 0 1-.72-.1.24.24 0 0 1-.11-.1.37.37 0 0 1-.05-.12l-.02-.16a3.62 3.62 0 0 1 .04-.7.3.3 0 0 1 .06-.1.12.12 0 0 1 .08-.02l.13.01.22.02c.1 0 .2-.02.29-.05a.44.44 0 0 0 .2-.16.77.77 0 0 0 .11-.27c.03-.12.04-.3.04-.54v-5.62c0-.04.01-.08.04-.1a.29.29 0 0 1 .13-.09 3.48 3.48 0 0 1 1.27 0l.13.08c.03.03.04.07.04.11v5.65zm.12-7.52c0 .32-.06.53-.2.65-.12.12-.37.18-.73.18s-.6-.06-.74-.17c-.12-.12-.19-.33-.19-.63s.07-.52.2-.64.38-.18.74-.18.6.05.73.17c.13.12.2.33.2.63zM227.35 38.04c0 .3-.06.58-.19.82-.12.24-.29.44-.51.6-.23.16-.49.28-.8.35a3.86 3.86 0 0 1-2.12-.04l-.38-.14a.94.94 0 0 1-.23-.14.43.43 0 0 1-.1-.2 2.83 2.83 0 0 1-.03-.7.7.7 0 0 1 .04-.17.17.17 0 0 1 .06-.09.21.21 0 0 1 .1-.02c.05 0 .12.03.2.08a4.33 4.33 0 0 0 .83.34 2.2 2.2 0 0 0 1 .04c.12-.03.22-.07.3-.12a.52.52 0 0 0 .2-.2.6.6 0 0 0 .06-.29.46.46 0 0 0-.12-.32 1.06 1.06 0 0 0-.32-.23 3.99 3.99 0 0 0-.44-.18 10.94 10.94 0 0 1-1.01-.43c-.17-.09-.32-.2-.45-.33a1.49 1.49 0 0 1-.43-1.14 1.61 1.61 0 0 1 .62-1.28c.2-.16.45-.28.74-.36a3.34 3.34 0 0 1 1.5-.1 3.8 3.8 0 0 1 .8.22l.2.1.09.1c.01.03.03.07.03.11l.03.16a2.66 2.66 0 0 1-.04.67c-.01.04-.03.07-.06.08a.18.18 0 0 1-.09.03.46.46 0 0 1-.18-.07 2.95 2.95 0 0 0-1.27-.34c-.15 0-.27.02-.38.04-.1.03-.2.07-.26.13a.52.52 0 0 0-.2.41c0 .13.03.24.11.32.08.1.2.16.32.23.14.07.29.13.46.18a13.87 13.87 0 0 1 1.02.43c.17.09.32.2.45.33a1.52 1.52 0 0 1 .45 1.12zM233.55 39.6c0 .03-.01.07-.03.1a.25.25 0 0 1-.13.07 4.1 4.1 0 0 1-1.37 0 .43.43 0 0 1-.16-.07.48.48 0 0 1-.1-.13l-1.91-2.88v2.9c0 .04-.02.07-.04.1a.28.28 0 0 1-.13.08 3.64 3.64 0 0 1-1.28 0 .28.28 0 0 1-.13-.08.17.17 0 0 1-.04-.1V31.5c0-.04.01-.08.04-.1a.28.28 0 0 1 .13-.1l.25-.04a3.26 3.26 0 0 1 1.03.05c.06.02.1.05.13.08.02.03.04.07.04.11v4.8l1.7-2.17c.03-.05.06-.1.1-.13.05-.04.1-.07.18-.09l.26-.04a4.13 4.13 0 0 1 1.07.04.3.3 0 0 1 .14.08c.02.03.03.07.03.11 0 .07-.01.13-.05.2-.03.07-.08.14-.14.22l-1.68 1.82 1.94 2.87c.06.08.1.15.12.2l.03.17zM235.95 32.26c0 .3-.07.52-.2.64s-.38.18-.74.18-.6-.06-.73-.17c-.13-.12-.2-.33-.2-.63s.07-.52.2-.64.38-.18.75-.18c.35 0 .6.05.73.17s.19.33.19.63zm-.12 7.32c0 .05-.02.08-.04.11a.28.28 0 0 1-.13.08 3.66 3.66 0 0 1-1.28 0 .27.27 0 0 1-.13-.08.16.16 0 0 1-.04-.1v-5.47c0-.04.01-.08.04-.1a.29.29 0 0 1 .13-.09 3.45 3.45 0 0 1 1.28 0l.13.08c.02.03.04.07.04.11v5.46zM242.4 36.69c0 .18-.05.33-.14.41a.48.48 0 0 1-.36.14h-3.48c0 .23.03.45.08.64.06.19.15.35.28.48.13.13.29.23.49.3.2.07.43.1.71.1a4.29 4.29 0 0 0 1.69-.3c.1-.05.19-.07.25-.07a.2.2 0 0 1 .1.03c.02 0 .04.04.06.07a.5.5 0 0 1 .03.16 2.72 2.72 0 0 1-.05.76.4.4 0 0 1-.07.09.79.79 0 0 1-.23.12 6.7 6.7 0 0 1-1.93.32c-.5 0-.95-.07-1.33-.19a2.29 2.29 0 0 1-1.53-1.5 4.27 4.27 0 0 1-.2-1.34c0-.49.07-.93.2-1.32a2.49 2.49 0 0 1 1.5-1.62c.36-.14.77-.21 1.22-.21.48 0 .9.07 1.23.2.34.14.62.32.84.56.22.24.38.53.48.85.1.33.15.69.15 1.07v.25zm-1.57-.44c.01-.44-.08-.78-.27-1.03-.2-.24-.5-.37-.9-.37-.21 0-.39.04-.54.11-.15.08-.28.18-.38.3-.1.13-.18.27-.23.44-.05.17-.09.35-.1.55h2.42zM248.55 34.49a1 1 0 0 1-.07.44c-.05.09-.1.14-.17.14h-.68c.1.1.17.2.2.33.05.13.07.26.07.4 0 .31-.06.6-.17.84a1.7 1.7 0 0 1-.48.63c-.2.17-.46.3-.75.38a3.36 3.36 0 0 1-1.5.07c-.17-.04-.3-.1-.39-.15a.82.82 0 0 0-.14.2.5.5 0 0 0-.06.24c0 .12.06.21.17.29.1.07.26.12.46.13l1.39.04c.32.02.61.06.87.14.25.07.47.18.64.32a1.4 1.4 0 0 1 .53 1.15 1.64 1.64 0 0 1-.74 1.38c-.25.18-.56.32-.93.42a5.98 5.98 0 0 1-2.56.04 2.82 2.82 0 0 1-.85-.3 1.26 1.26 0 0 1-.48-.47c-.1-.19-.15-.38-.15-.6a1.39 1.39 0 0 1 .21-.74c.07-.11.16-.22.26-.32s.22-.2.36-.3a.99.99 0 0 1-.58-.91c0-.24.06-.46.17-.66.12-.2.27-.38.45-.54a1.61 1.61 0 0 1-.5-1.26 2 2 0 0 1 .18-.86c.12-.25.28-.47.5-.64.2-.17.45-.3.74-.4a4 4 0 0 1 1.94-.02h1.82c.07 0 .13.04.18.13.04.1.06.25.06.46zm-1.7 5.67a.47.47 0 0 0-.22-.43c-.16-.1-.37-.15-.64-.16l-1.15-.03c-.1.08-.2.15-.26.23-.07.07-.12.14-.16.2a.57.57 0 0 0-.08.2.88.88 0 0 0-.02.18c0 .2.1.36.32.47.22.1.52.16.92.16.24 0 .44-.03.61-.07.17-.05.3-.11.4-.19a.66.66 0 0 0 .29-.56zm-.37-4.38a.9.9 0 0 0-.26-.68 1.01 1.01 0 0 0-.72-.25c-.16 0-.3.03-.42.08a.84.84 0 0 0-.47.51c-.04.12-.06.24-.06.37 0 .28.08.5.25.66a1 1 0 0 0 .72.24c.16 0 .3-.02.42-.07a.82.82 0 0 0 .48-.5c.04-.11.06-.23.06-.36zM255.08 36.8a4 4 0 0 1-.2 1.27c-.12.38-.31.71-.57 1-.27.27-.6.49-.99.64-.39.15-.85.22-1.38.22-.5 0-.95-.06-1.32-.2a2.41 2.41 0 0 1-.94-.59 2.4 2.4 0 0 1-.55-.95c-.12-.37-.18-.8-.18-1.29 0-.46.06-.9.2-1.28.13-.39.32-.72.58-1 .26-.27.59-.48.98-.63.4-.16.85-.23 1.38-.23a4 4 0 0 1 1.33.2c.38.13.69.33.93.58.25.26.43.58.55.96.12.37.18.8.18 1.3zm-1.66.05c0-.27-.02-.52-.07-.74a1.73 1.73 0 0 0-.22-.6c-.11-.16-.25-.3-.43-.39-.18-.1-.4-.14-.67-.14-.24 0-.45.04-.63.13-.18.08-.33.2-.44.36-.12.17-.2.36-.26.59a3.57 3.57 0 0 0-.02 1.52c.05.23.12.43.23.6.1.16.25.29.43.38.17.1.4.14.66.14.25 0 .46-.04.64-.12.18-.09.32-.21.44-.37s.2-.35.26-.58c.05-.23.08-.49.08-.78zM142 24.02c0 .18 0 .33-.02.45-.02.13-.04.23-.07.3a.35.35 0 0 1-.12.16.27.27 0 0 1-.15.05h-7c-.25 0-.44-.07-.57-.21-.13-.14-.2-.35-.2-.62v-.4a1.7 1.7 0 0 1 .26-.98l.26-.45 4.62-7.31h-4.58a.34.34 0 0 1-.19-.05.36.36 0 0 1-.13-.16 1.02 1.02 0 0 1-.07-.3 3.5 3.5 0 0 1 .07-1.2.33.33 0 0 1 .13-.16.36.36 0 0 1 .19-.05H141c.25 0 .44.06.56.2.11.12.17.3.17.53v.45c0 .17 0 .31-.02.43a1.67 1.67 0 0 1-.24.7l-.26.43-4.54 7.21h4.97c.12 0 .2.07.27.22.06.15.09.4.09.76zM150.07 24.7c0 .08-.04.15-.1.2a.63.63 0 0 1-.29.1c-.13.02-.32.03-.58.03-.28 0-.48 0-.6-.03a.52.52 0 0 1-.27-.1.26.26 0 0 1-.08-.2v-.66a3.35 3.35 0 0 1-2.6 1.15c-.42 0-.82-.06-1.19-.17a2.71 2.71 0 0 1-.94-.5c-.27-.23-.47-.5-.62-.84a2.84 2.84 0 0 1-.22-1.15c0-.48.1-.9.28-1.25.18-.35.46-.64.83-.87.37-.23.84-.4 1.39-.51.55-.11 1.19-.17 1.92-.17h.8v-.5c0-.25-.03-.48-.08-.67a1.06 1.06 0 0 0-.74-.77 3.75 3.75 0 0 0-1.77.04 5.87 5.87 0 0 0-1.39.57.86.86 0 0 1-.38.13.27.27 0 0 1-.18-.06.47.47 0 0 1-.13-.19 1.22 1.22 0 0 1-.07-.3 2.53 2.53 0 0 1 .01-.83.7.7 0 0 1 .18-.3c.08-.09.23-.19.45-.3a6.77 6.77 0 0 1 4.4-.42c.45.13.83.32 1.12.58.3.26.5.6.64 1.01.14.41.2.9.2 1.46v5.51zm-2.27-3.52h-.89c-.37 0-.69.03-.95.09-.26.05-.48.13-.64.24-.17.11-.29.25-.37.4a1.2 1.2 0 0 0-.11.54c0 .34.1.61.32.81.22.2.52.3.9.3.33 0 .63-.09.9-.25.28-.17.56-.41.84-.73v-1.4zM157.17 17.23a6.6 6.6 0 0 1-.08.88c-.02.08-.05.13-.1.16a.23.23 0 0 1-.15.05.54.54 0 0 1-.16-.03l-.2-.07a4.55 4.55 0 0 0-.26-.07l-.3-.03c-.13 0-.26.02-.39.07s-.26.14-.4.25c-.14.1-.28.25-.43.44-.15.18-.31.4-.48.68v5.1c0 .07-.02.12-.06.17a.42.42 0 0 1-.19.11 5.24 5.24 0 0 1-1.83 0 .41.41 0 0 1-.18-.11.25.25 0 0 1-.06-.16v-8.2c0-.06.02-.11.05-.16a.34.34 0 0 1 .16-.12 3.9 3.9 0 0 1 1.57 0c.07.04.12.07.15.12.03.05.05.1.05.16v1.02c.21-.3.41-.56.6-.76.2-.2.37-.35.55-.47.17-.12.34-.2.51-.24a1.98 1.98 0 0 1 .77-.06 2.51 2.51 0 0 1 .54.12c.08.03.13.06.16.09a.3.3 0 0 1 .08.1l.04.15.03.29v.52zM163.85 24.03c0 .18 0 .33-.02.46-.02.12-.05.22-.08.3-.03.07-.07.12-.12.15a.32.32 0 0 1-.16.04h-5.36a.46.46 0 0 1-.38-.17c-.09-.1-.13-.29-.13-.54v-.42l.01-.3a1.21 1.21 0 0 1 .17-.51c.04-.09.1-.18.17-.29l3.07-4.74h-2.9c-.12 0-.21-.07-.28-.22-.07-.14-.1-.38-.1-.7 0-.18 0-.33.02-.45.01-.12.04-.21.07-.28a.32.32 0 0 1 .12-.16c.04-.03.1-.04.17-.04h5c.1 0 .17 0 .23.02s.11.06.15.1c.04.06.07.12.1.21l.02.32v.45a2.52 2.52 0 0 1-.07.6c-.02.08-.06.17-.1.26l-.17.27-3.05 4.73h3.24c.05 0 .1.02.15.04a.3.3 0 0 1 .13.14c.03.06.06.16.08.28l.02.45zM172.67 27.37c0 .13 0 .23-.02.32a.7.7 0 0 1-.06.21.38.38 0 0 1-.1.13.71.71 0 0 1-.15.08c-.18.08-.39.13-.61.17-.23.03-.49.05-.78.05-.63 0-1.12-.12-1.47-.37a1.25 1.25 0 0 1-.53-1.1 1.73 1.73 0 0 1 .16-.7c.06-.13.14-.25.23-.38.1-.12.21-.26.36-.4l.52-.52V24h-.02a3.24 3.24 0 0 1-2.59 1.2c-.44-.01-.84-.07-1.2-.18a2.72 2.72 0 0 1-.95-.5c-.26-.23-.47-.5-.62-.84a2.84 2.84 0 0 1-.22-1.15c0-.48.1-.9.28-1.25.19-.35.47-.64.84-.87.37-.23.83-.4 1.38-.51a9.8 9.8 0 0 1 1.92-.17h.8v-.5c0-.25-.02-.48-.08-.67-.05-.2-.13-.35-.25-.48a1.07 1.07 0 0 0-.48-.29 3.76 3.76 0 0 0-1.77.04 5.89 5.89 0 0 0-1.4.57.85.85 0 0 1-.37.13.27.27 0 0 1-.18-.07.48.48 0 0 1-.13-.18 1.28 1.28 0 0 1-.08-.3 2.53 2.53 0 0 1 .02-.83.7.7 0 0 1 .17-.3c.09-.09.24-.19.45-.3a6.78 6.78 0 0 1 4.4-.42c.46.13.83.32 1.13.58.29.26.5.6.64 1.01.13.41.2.9.2 1.46v5.43c0 .17-.02.31-.06.44a.89.89 0 0 1-.2.33l-.4.38c-.11.13-.2.24-.25.34-.05.1-.07.2-.07.3 0 .25.19.38.56.38h.66c.12 0 .2.04.25.12.05.09.07.24.07.47zm-2.83-6.19h-.88c-.37 0-.7.03-.96.09-.26.05-.47.13-.64.24-.16.11-.28.25-.36.4-.08.16-.12.34-.12.54 0 .34.11.61.33.81.22.2.52.3.9.3.33 0 .63-.09.9-.25.27-.17.55-.41.83-.73v-1.4zM181.72 24.67c0 .06-.01.12-.05.17a.34.34 0 0 1-.15.11c-.08.03-.17.05-.3.07a5.17 5.17 0 0 1-1.24-.07.37.37 0 0 1-.17-.11.27.27 0 0 1-.05-.17v-.91c-.42.45-.86.8-1.32 1.05-.47.25-.98.38-1.54.38-.63 0-1.16-.12-1.59-.36a3.03 3.03 0 0 1-1.05-.98 4.22 4.22 0 0 1-.6-1.44 7.9 7.9 0 0 1 .05-3.7c.16-.58.39-1.08.69-1.49.3-.4.67-.72 1.12-.94a3.44 3.44 0 0 1 2.8-.05c.36.18.74.46 1.1.82V12.6c0-.06.02-.11.05-.16.04-.05.1-.1.19-.13s.2-.06.35-.08a4.77 4.77 0 0 1 1.47.08.4.4 0 0 1 .19.13c.03.05.05.1.05.16v12.06zm-2.3-5.48a5.09 5.09 0 0 0-.95-.95c-.3-.23-.62-.34-.95-.34-.3 0-.56.08-.77.23-.22.15-.4.35-.53.6s-.23.53-.3.84a5.95 5.95 0 0 0-.01 1.95c.06.33.15.62.28.87.12.26.29.46.5.61.2.16.47.23.79.23a1.58 1.58 0 0 0 .92-.3c.16-.1.32-.23.48-.4.17-.17.35-.38.54-.62V19.2zM197.37 18.86a8.1 8.1 0 0 1-.42 2.8c-.29.77-.7 1.4-1.23 1.9a4.9 4.9 0 0 1-1.94 1.07c-.77.23-1.67.35-2.73.35h-2.84a.75.75 0 0 1-.5-.18c-.14-.12-.21-.31-.21-.58V13.85c0-.27.07-.46.2-.58.14-.12.31-.18.51-.18h3.05c1.06 0 1.96.12 2.7.37.74.25 1.36.62 1.87 1.1.5.5.88 1.1 1.15 1.8.26.73.4 1.56.4 2.5zm-2.5.08c0-.56-.06-1.08-.2-1.57-.12-.48-.34-.9-.63-1.26-.29-.35-.66-.63-1.12-.83-.45-.2-1.05-.3-1.8-.3h-1.22v8.09h1.26c.66 0 1.22-.09 1.67-.26.46-.17.84-.43 1.14-.78.3-.34.53-.77.68-1.29.15-.51.22-1.11.22-1.8zM204.01 17.23a6.37 6.37 0 0 1-.07.88c-.02.08-.06.13-.1.16a.23.23 0 0 1-.15.05.56.56 0 0 1-.16-.03l-.2-.07a4.3 4.3 0 0 0-.26-.07l-.3-.03c-.13 0-.26.02-.4.07-.12.05-.25.14-.4.25-.13.1-.27.25-.42.44-.15.18-.31.4-.49.68v5.1c0 .07-.01.12-.05.17a.42.42 0 0 1-.19.11 5.22 5.22 0 0 1-1.83 0 .41.41 0 0 1-.18-.11.25.25 0 0 1-.06-.16v-8.2c0-.06.02-.11.05-.16a.33.33 0 0 1 .16-.12 3.89 3.89 0 0 1 1.57 0c.07.04.12.07.15.12.03.05.05.1.05.16v1.02c.2-.3.41-.56.6-.76.2-.2.37-.35.54-.47.17-.12.35-.2.52-.24a1.98 1.98 0 0 1 .77-.06 2.55 2.55 0 0 1 .54.12c.08.03.13.06.16.09a.3.3 0 0 1 .08.1l.04.15.03.29v.52zM213.26 20.49c0 .7-.1 1.33-.28 1.9a3.73 3.73 0 0 1-2.24 2.45c-.57.24-1.22.35-1.98.35-.73 0-1.36-.1-1.9-.3a3.42 3.42 0 0 1-2.13-2.31 6.62 6.62 0 0 1-.26-1.93c0-.7.1-1.34.28-1.91a3.73 3.73 0 0 1 2.24-2.45 5.26 5.26 0 0 1 1.97-.34c.74 0 1.38.1 1.92.3a3.34 3.34 0 0 1 2.12 2.3c.17.56.26 1.2.26 1.94zm-2.38.09c0-.4-.04-.78-.1-1.12a2.65 2.65 0 0 0-.33-.89 1.63 1.63 0 0 0-.6-.58 1.97 1.97 0 0 0-.97-.21c-.34 0-.64.06-.9.18-.26.13-.47.31-.63.55-.17.25-.3.54-.37.88a5.69 5.69 0 0 0-.02 2.28c.06.34.17.63.32.88s.35.45.6.59c.27.13.59.2.97.2.34 0 .65-.06.9-.18.26-.13.47-.31.64-.55.16-.24.29-.53.37-.87.08-.34.12-.73.12-1.16zm-1.57-8.13a.64.64 0 0 1 .39-.29 5.83 5.83 0 0 1 1.53-.04c.16.02.28.06.35.1.07.05.1.1.1.16-.01.06-.04.13-.1.2l-1.78 2.13-.15.15a.55.55 0 0 1-.18.1l-.3.05a4.36 4.36 0 0 1-.94-.01.56.56 0 0 1-.27-.09.15.15 0 0 1-.06-.15c.01-.06.05-.13.1-.21l1.31-2.1zM222 17.04c0 .3-.03.51-.1.65s-.15.21-.25.21h-.96c.13.15.23.32.29.5a3.2 3.2 0 0 1-.15 1.86c-.16.37-.4.68-.69.94-.3.25-.66.45-1.07.58-.42.13-.9.2-1.4.2a2.8 2.8 0 0 1-1.31-.33c-.07.08-.14.18-.2.29a.78.78 0 0 0-.08.36c0 .18.07.33.23.44.16.11.37.18.66.19l1.99.07c.47.02.88.09 1.24.2.37.11.68.27.92.48.25.2.44.45.57.74a2.53 2.53 0 0 1-.87 3.06c-.35.26-.8.47-1.33.62a8.3 8.3 0 0 1-3.67.06 3.9 3.9 0 0 1-1.21-.45c-.32-.2-.55-.43-.7-.7a1.9 1.9 0 0 1-.2-.9 2.14 2.14 0 0 1 .3-1.1c.1-.18.23-.34.37-.49.15-.15.32-.3.5-.44a1.53 1.53 0 0 1-.82-1.37 2 2 0 0 1 .25-.99c.17-.3.38-.56.64-.8a2.42 2.42 0 0 1-.51-.77c-.13-.3-.2-.68-.2-1.12 0-.48.09-.9.26-1.29.17-.37.4-.7.7-.95.3-.26.66-.46 1.08-.6.41-.14.87-.2 1.38-.2a5.83 5.83 0 0 1 1.4.17h2.6c.1 0 .18.07.24.2.07.14.1.36.1.68zm-2.42 8.48a.71.71 0 0 0-.34-.63 1.72 1.72 0 0 0-.9-.24l-1.65-.05a2.47 2.47 0 0 0-.61.65c-.06.1-.1.19-.12.28l-.02.29c0 .3.15.53.46.7.31.15.75.23 1.31.23.35 0 .64-.03.88-.1s.43-.17.58-.28a.99.99 0 0 0 .31-.4c.06-.14.1-.29.1-.45zm-.55-6.54c0-.44-.12-.79-.36-1.03a1.4 1.4 0 0 0-1.04-.37c-.23 0-.43.04-.6.12a1.21 1.21 0 0 0-.68.77c-.05.17-.08.36-.08.55 0 .41.12.74.37.98.24.25.58.37 1.02.37.23 0 .43-.04.6-.11.17-.08.32-.18.43-.3.11-.14.2-.28.26-.45.05-.17.08-.35.08-.53z"/></svg>